<mxfile host="app.diagrams.net" modified="2023-05-22T09:02:53.688Z" agent="Mozilla/5.0 (Windows NT 10.0; Win64; x64) AppleWebKit/537.36 (KHTML, like Gecko) Chrome/113.0.0.0 Safari/537.36" etag="CZmZ_egZXVZCYMGKHlna" version="21.2.9" type="github">
  <diagram name="communication_diagram_양현지" id="VjG1DPXc5YwxViOuIO_d">
    <mxGraphModel dx="930" dy="922" grid="1" gridSize="10" guides="1" tooltips="1" connect="1" arrows="1" fold="1" page="1" pageScale="1" pageWidth="827" pageHeight="1169" math="0" shadow="0">
      <root>
        <mxCell id="0" />
        <mxCell id="1" parent="0" />
        <mxCell id="dPYX6Sap5P_xijtm9A5s-1" value="&lt;b&gt;sd&amp;nbsp; showApplyInfo&lt;/b&gt;" style="shape=umlFrame;whiteSpace=wrap;html=1;pointerEvents=0;recursiveResize=0;container=1;collapsible=0;width=160;" vertex="1" parent="1">
          <mxGeometry x="403" y="270" width="810" height="320" as="geometry" />
        </mxCell>
        <mxCell id="dPYX6Sap5P_xijtm9A5s-2" value="GenMember" style="shape=umlActor;verticalLabelPosition=bottom;verticalAlign=top;html=1;outlineConnect=0;" vertex="1" parent="dPYX6Sap5P_xijtm9A5s-1">
          <mxGeometry x="20" y="96.25" width="26" height="42.5" as="geometry" />
        </mxCell>
        <mxCell id="dPYX6Sap5P_xijtm9A5s-3" value=":&lt;b style=&quot;border-color: var(--border-color);&quot;&gt;showApplyInfo&lt;/b&gt;UI" style="fontStyle=1;whiteSpace=wrap;html=1;" vertex="1" parent="dPYX6Sap5P_xijtm9A5s-1">
          <mxGeometry x="113" y="102.5" width="140" height="30" as="geometry" />
        </mxCell>
        <mxCell id="dPYX6Sap5P_xijtm9A5s-4" value=":GenMember" style="fontStyle=1;whiteSpace=wrap;html=1;" vertex="1" parent="dPYX6Sap5P_xijtm9A5s-1">
          <mxGeometry x="643" y="102.5" width="140" height="30" as="geometry" />
        </mxCell>
        <mxCell id="dPYX6Sap5P_xijtm9A5s-5" value=":&lt;b style=&quot;border-color: var(--border-color);&quot;&gt;showApplyInfo&lt;/b&gt;" style="fontStyle=1;whiteSpace=wrap;html=1;" vertex="1" parent="dPYX6Sap5P_xijtm9A5s-1">
          <mxGeometry x="363" y="102.5" width="140" height="30" as="geometry" />
        </mxCell>
        <mxCell id="dPYX6Sap5P_xijtm9A5s-6" value="" style="endArrow=none;startArrow=none;endFill=0;startFill=0;endSize=8;html=1;verticalAlign=bottom;labelBackgroundColor=none;strokeWidth=3;rounded=0;" edge="1" parent="dPYX6Sap5P_xijtm9A5s-1">
          <mxGeometry width="160" relative="1" as="geometry">
            <mxPoint x="53" y="117" as="sourcePoint" />
            <mxPoint x="113" y="117" as="targetPoint" />
          </mxGeometry>
        </mxCell>
        <mxCell id="dPYX6Sap5P_xijtm9A5s-7" value="" style="endArrow=none;startArrow=none;endFill=0;startFill=0;endSize=8;html=1;verticalAlign=bottom;labelBackgroundColor=none;strokeWidth=3;rounded=0;entryX=0;entryY=0.5;entryDx=0;entryDy=0;" edge="1" parent="dPYX6Sap5P_xijtm9A5s-1" target="dPYX6Sap5P_xijtm9A5s-5">
          <mxGeometry width="160" relative="1" as="geometry">
            <mxPoint x="253" y="117" as="sourcePoint" />
            <mxPoint x="360" y="117" as="targetPoint" />
          </mxGeometry>
        </mxCell>
        <mxCell id="dPYX6Sap5P_xijtm9A5s-8" value="" style="endArrow=none;startArrow=none;endFill=0;startFill=0;endSize=8;html=1;verticalAlign=bottom;labelBackgroundColor=none;strokeWidth=3;rounded=0;entryX=0;entryY=0.5;entryDx=0;entryDy=0;" edge="1" parent="dPYX6Sap5P_xijtm9A5s-1" target="dPYX6Sap5P_xijtm9A5s-4">
          <mxGeometry width="160" relative="1" as="geometry">
            <mxPoint x="503" y="117" as="sourcePoint" />
            <mxPoint x="610" y="120" as="targetPoint" />
          </mxGeometry>
        </mxCell>
        <mxCell id="dPYX6Sap5P_xijtm9A5s-9" value="" style="html=1;verticalAlign=bottom;labelBackgroundColor=none;endArrow=block;endFill=1;rounded=0;" edge="1" parent="dPYX6Sap5P_xijtm9A5s-1">
          <mxGeometry width="160" relative="1" as="geometry">
            <mxPoint x="60" y="92" as="sourcePoint" />
            <mxPoint x="104" y="92" as="targetPoint" />
          </mxGeometry>
        </mxCell>
        <mxCell id="dPYX6Sap5P_xijtm9A5s-10" value="" style="html=1;verticalAlign=bottom;labelBackgroundColor=none;endArrow=block;endFill=1;rounded=0;" edge="1" parent="dPYX6Sap5P_xijtm9A5s-1">
          <mxGeometry width="160" relative="1" as="geometry">
            <mxPoint x="260" y="93" as="sourcePoint" />
            <mxPoint x="357" y="93" as="targetPoint" />
          </mxGeometry>
        </mxCell>
        <mxCell id="dPYX6Sap5P_xijtm9A5s-11" value="" style="html=1;verticalAlign=bottom;labelBackgroundColor=none;endArrow=block;endFill=1;rounded=0;" edge="1" parent="dPYX6Sap5P_xijtm9A5s-1">
          <mxGeometry width="160" relative="1" as="geometry">
            <mxPoint x="529" y="93" as="sourcePoint" />
            <mxPoint x="626" y="93" as="targetPoint" />
          </mxGeometry>
        </mxCell>
        <mxCell id="dPYX6Sap5P_xijtm9A5s-12" value="" style="html=1;verticalAlign=bottom;labelBackgroundColor=none;endArrow=block;endFill=1;rounded=0;" edge="1" parent="dPYX6Sap5P_xijtm9A5s-1">
          <mxGeometry width="160" relative="1" as="geometry">
            <mxPoint x="359" y="147.5" as="sourcePoint" />
            <mxPoint x="259" y="147.5" as="targetPoint" />
          </mxGeometry>
        </mxCell>
        <mxCell id="dPYX6Sap5P_xijtm9A5s-13" value="1 : startInterface()" style="text;html=1;strokeColor=none;fillColor=none;align=center;verticalAlign=middle;whiteSpace=wrap;rounded=0;" vertex="1" parent="dPYX6Sap5P_xijtm9A5s-1">
          <mxGeometry x="240" y="147.5" width="150" height="30" as="geometry" />
        </mxCell>
        <mxCell id="dPYX6Sap5P_xijtm9A5s-14" value="2. showApplyInfo()" style="text;html=1;strokeColor=none;fillColor=none;align=center;verticalAlign=middle;whiteSpace=wrap;rounded=0;" vertex="1" parent="dPYX6Sap5P_xijtm9A5s-1">
          <mxGeometry x="11" y="61.5" width="150" height="30" as="geometry" />
        </mxCell>
        <mxCell id="dPYX6Sap5P_xijtm9A5s-15" value="2.1 : showApplyInfo()" style="text;html=1;strokeColor=none;fillColor=none;align=center;verticalAlign=middle;whiteSpace=wrap;rounded=0;" vertex="1" parent="dPYX6Sap5P_xijtm9A5s-1">
          <mxGeometry x="232" y="62.5" width="150" height="30" as="geometry" />
        </mxCell>
        <mxCell id="dPYX6Sap5P_xijtm9A5s-16" value="2.1.1 : *[For all ApplyInfos]:&lt;br&gt;&amp;nbsp; showApplyInfo()" style="text;html=1;strokeColor=none;fillColor=none;align=center;verticalAlign=middle;whiteSpace=wrap;rounded=0;" vertex="1" parent="dPYX6Sap5P_xijtm9A5s-1">
          <mxGeometry x="503" y="50" width="213" height="30" as="geometry" />
        </mxCell>
        <mxCell id="dPYX6Sap5P_xijtm9A5s-17" value=":ApplyInfo" style="fontStyle=1;whiteSpace=wrap;html=1;" vertex="1" parent="dPYX6Sap5P_xijtm9A5s-1">
          <mxGeometry x="470" y="250" width="140" height="30" as="geometry" />
        </mxCell>
        <mxCell id="dPYX6Sap5P_xijtm9A5s-18" value="" style="endArrow=none;startArrow=none;endFill=0;startFill=0;endSize=8;html=1;verticalAlign=bottom;labelBackgroundColor=none;strokeWidth=3;rounded=0;entryX=0.556;entryY=0.989;entryDx=0;entryDy=0;exitX=1;exitY=0.5;exitDx=0;exitDy=0;entryPerimeter=0;" edge="1" parent="dPYX6Sap5P_xijtm9A5s-1" source="dPYX6Sap5P_xijtm9A5s-17" target="dPYX6Sap5P_xijtm9A5s-4">
          <mxGeometry width="160" relative="1" as="geometry">
            <mxPoint x="513" y="127" as="sourcePoint" />
            <mxPoint x="653" y="128" as="targetPoint" />
          </mxGeometry>
        </mxCell>
        <mxCell id="dPYX6Sap5P_xijtm9A5s-19" value="2.1.2 :&amp;nbsp; showInfo()" style="text;html=1;strokeColor=none;fillColor=none;align=center;verticalAlign=middle;whiteSpace=wrap;rounded=0;" vertex="1" parent="dPYX6Sap5P_xijtm9A5s-1">
          <mxGeometry x="470" y="180" width="213" height="30" as="geometry" />
        </mxCell>
        <mxCell id="dPYX6Sap5P_xijtm9A5s-20" value="" style="html=1;verticalAlign=bottom;labelBackgroundColor=none;endArrow=block;endFill=1;rounded=0;" edge="1" parent="dPYX6Sap5P_xijtm9A5s-1">
          <mxGeometry width="160" relative="1" as="geometry">
            <mxPoint x="690" y="150" as="sourcePoint" />
            <mxPoint x="609" y="240" as="targetPoint" />
          </mxGeometry>
        </mxCell>
        <mxCell id="dPYX6Sap5P_xijtm9A5s-21" value="&lt;b&gt;sd&amp;nbsp; cancelApplyInfo&lt;/b&gt;" style="shape=umlFrame;whiteSpace=wrap;html=1;pointerEvents=0;recursiveResize=0;container=1;collapsible=0;width=160;" vertex="1" parent="1">
          <mxGeometry x="390" y="680" width="810" height="360" as="geometry" />
        </mxCell>
        <mxCell id="dPYX6Sap5P_xijtm9A5s-22" value=":cancelApplyInfoUI" style="fontStyle=1;whiteSpace=wrap;html=1;" vertex="1" parent="dPYX6Sap5P_xijtm9A5s-21">
          <mxGeometry x="113" y="130.5" width="140" height="30" as="geometry" />
        </mxCell>
        <mxCell id="dPYX6Sap5P_xijtm9A5s-23" value=":ApplyInfo" style="fontStyle=1;whiteSpace=wrap;html=1;" vertex="1" parent="dPYX6Sap5P_xijtm9A5s-21">
          <mxGeometry x="650" y="130.5" width="140" height="30" as="geometry" />
        </mxCell>
        <mxCell id="dPYX6Sap5P_xijtm9A5s-24" value=":cancelApplyInfo" style="fontStyle=1;whiteSpace=wrap;html=1;" vertex="1" parent="dPYX6Sap5P_xijtm9A5s-21">
          <mxGeometry x="363" y="130.5" width="140" height="30" as="geometry" />
        </mxCell>
        <mxCell id="dPYX6Sap5P_xijtm9A5s-25" value="" style="endArrow=none;startArrow=none;endFill=0;startFill=0;endSize=8;html=1;verticalAlign=bottom;labelBackgroundColor=none;strokeWidth=3;rounded=0;exitX=0.5;exitY=0.5;exitDx=0;exitDy=0;exitPerimeter=0;" edge="1" parent="dPYX6Sap5P_xijtm9A5s-21" source="dPYX6Sap5P_xijtm9A5s-41">
          <mxGeometry width="160" relative="1" as="geometry">
            <mxPoint x="-57" y="143.24999999999977" as="sourcePoint" />
            <mxPoint x="113" y="149" as="targetPoint" />
          </mxGeometry>
        </mxCell>
        <mxCell id="dPYX6Sap5P_xijtm9A5s-26" value="" style="endArrow=none;startArrow=none;endFill=0;startFill=0;endSize=8;html=1;verticalAlign=bottom;labelBackgroundColor=none;strokeWidth=3;rounded=0;entryX=0;entryY=0.5;entryDx=0;entryDy=0;" edge="1" parent="dPYX6Sap5P_xijtm9A5s-21" target="dPYX6Sap5P_xijtm9A5s-24">
          <mxGeometry width="160" relative="1" as="geometry">
            <mxPoint x="253" y="145" as="sourcePoint" />
            <mxPoint x="360" y="145" as="targetPoint" />
          </mxGeometry>
        </mxCell>
        <mxCell id="dPYX6Sap5P_xijtm9A5s-27" value="" style="html=1;verticalAlign=bottom;labelBackgroundColor=none;endArrow=block;endFill=1;rounded=0;" edge="1" parent="dPYX6Sap5P_xijtm9A5s-21">
          <mxGeometry width="160" relative="1" as="geometry">
            <mxPoint x="60" y="123" as="sourcePoint" />
            <mxPoint x="104" y="123" as="targetPoint" />
          </mxGeometry>
        </mxCell>
        <mxCell id="dPYX6Sap5P_xijtm9A5s-28" value="" style="html=1;verticalAlign=bottom;labelBackgroundColor=none;endArrow=block;endFill=1;rounded=0;" edge="1" parent="dPYX6Sap5P_xijtm9A5s-21">
          <mxGeometry width="160" relative="1" as="geometry">
            <mxPoint x="260" y="121" as="sourcePoint" />
            <mxPoint x="357" y="121" as="targetPoint" />
          </mxGeometry>
        </mxCell>
        <mxCell id="dPYX6Sap5P_xijtm9A5s-29" value="" style="html=1;verticalAlign=bottom;labelBackgroundColor=none;endArrow=block;endFill=1;rounded=0;" edge="1" parent="dPYX6Sap5P_xijtm9A5s-21">
          <mxGeometry width="160" relative="1" as="geometry">
            <mxPoint x="359" y="175.5" as="sourcePoint" />
            <mxPoint x="259" y="175.5" as="targetPoint" />
          </mxGeometry>
        </mxCell>
        <mxCell id="dPYX6Sap5P_xijtm9A5s-30" value="2 : startInterface()" style="text;html=1;strokeColor=none;fillColor=none;align=center;verticalAlign=middle;whiteSpace=wrap;rounded=0;" vertex="1" parent="dPYX6Sap5P_xijtm9A5s-21">
          <mxGeometry x="240" y="175.5" width="150" height="30" as="geometry" />
        </mxCell>
        <mxCell id="dPYX6Sap5P_xijtm9A5s-31" value="1.1 :&amp;nbsp;&amp;nbsp; showInfo()" style="text;html=1;strokeColor=none;fillColor=none;align=center;verticalAlign=middle;whiteSpace=wrap;rounded=0;" vertex="1" parent="dPYX6Sap5P_xijtm9A5s-21">
          <mxGeometry x="560" y="220" width="213" height="30" as="geometry" />
        </mxCell>
        <mxCell id="dPYX6Sap5P_xijtm9A5s-32" value=":GenMember" style="fontStyle=1;whiteSpace=wrap;html=1;" vertex="1" parent="dPYX6Sap5P_xijtm9A5s-21">
          <mxGeometry x="363" y="280" width="140" height="30" as="geometry" />
        </mxCell>
        <mxCell id="dPYX6Sap5P_xijtm9A5s-33" value="" style="endArrow=none;startArrow=none;endFill=0;startFill=0;endSize=8;html=1;verticalAlign=bottom;labelBackgroundColor=none;strokeWidth=3;rounded=0;exitX=0.5;exitY=1;exitDx=0;exitDy=0;entryX=0.5;entryY=0;entryDx=0;entryDy=0;" edge="1" parent="dPYX6Sap5P_xijtm9A5s-21" source="dPYX6Sap5P_xijtm9A5s-24" target="dPYX6Sap5P_xijtm9A5s-32">
          <mxGeometry width="160" relative="1" as="geometry">
            <mxPoint x="513" y="155" as="sourcePoint" />
            <mxPoint x="653" y="156" as="targetPoint" />
          </mxGeometry>
        </mxCell>
        <mxCell id="dPYX6Sap5P_xijtm9A5s-34" value="" style="endArrow=classic;html=1;rounded=0;" edge="1" parent="dPYX6Sap5P_xijtm9A5s-21">
          <mxGeometry width="50" height="50" relative="1" as="geometry">
            <mxPoint x="405" y="190" as="sourcePoint" />
            <mxPoint x="405" y="270" as="targetPoint" />
          </mxGeometry>
        </mxCell>
        <mxCell id="dPYX6Sap5P_xijtm9A5s-35" value="" style="endArrow=none;startArrow=none;endFill=0;startFill=0;endSize=8;html=1;verticalAlign=bottom;labelBackgroundColor=none;strokeWidth=3;rounded=0;entryX=0;entryY=0.5;entryDx=0;entryDy=0;exitX=1;exitY=0.5;exitDx=0;exitDy=0;" edge="1" parent="dPYX6Sap5P_xijtm9A5s-21" source="dPYX6Sap5P_xijtm9A5s-32" target="dPYX6Sap5P_xijtm9A5s-23">
          <mxGeometry width="160" relative="1" as="geometry">
            <mxPoint x="513" y="155" as="sourcePoint" />
            <mxPoint x="653" y="156" as="targetPoint" />
          </mxGeometry>
        </mxCell>
        <mxCell id="dPYX6Sap5P_xijtm9A5s-36" value="" style="endArrow=classic;html=1;rounded=0;" edge="1" parent="dPYX6Sap5P_xijtm9A5s-21">
          <mxGeometry width="50" height="50" relative="1" as="geometry">
            <mxPoint x="530" y="290" as="sourcePoint" />
            <mxPoint x="650" y="166.75" as="targetPoint" />
          </mxGeometry>
        </mxCell>
        <mxCell id="dPYX6Sap5P_xijtm9A5s-37" value="3.1 : cancelApplyInfo()" style="text;html=1;strokeColor=none;fillColor=none;align=center;verticalAlign=middle;whiteSpace=wrap;rounded=0;" vertex="1" parent="dPYX6Sap5P_xijtm9A5s-21">
          <mxGeometry x="223.5" y="90.5" width="129" height="30" as="geometry" />
        </mxCell>
        <mxCell id="dPYX6Sap5P_xijtm9A5s-38" value="3. caneclApplyInfo()" style="text;html=1;strokeColor=none;fillColor=none;align=center;verticalAlign=middle;whiteSpace=wrap;rounded=0;" vertex="1" parent="dPYX6Sap5P_xijtm9A5s-21">
          <mxGeometry x="10" y="89.5" width="150" height="30" as="geometry" />
        </mxCell>
        <mxCell id="dPYX6Sap5P_xijtm9A5s-39" value="3.1.1 : cancelApplyInfo()" style="text;html=1;strokeColor=none;fillColor=none;align=center;verticalAlign=middle;whiteSpace=wrap;rounded=0;" vertex="1" parent="dPYX6Sap5P_xijtm9A5s-21">
          <mxGeometry x="216" y="260" width="138" height="30" as="geometry" />
        </mxCell>
        <mxCell id="dPYX6Sap5P_xijtm9A5s-40" value="1 : *[For&amp;nbsp; all ApplyInfos]:&lt;br&gt;&amp;nbsp; showApplyInfo()" style="text;html=1;strokeColor=none;fillColor=none;align=center;verticalAlign=middle;whiteSpace=wrap;rounded=0;" vertex="1" parent="dPYX6Sap5P_xijtm9A5s-21">
          <mxGeometry x="190" y="227" width="213" height="30" as="geometry" />
        </mxCell>
        <mxCell id="dPYX6Sap5P_xijtm9A5s-41" value="GenMember" style="shape=umlActor;verticalLabelPosition=bottom;verticalAlign=top;html=1;outlineConnect=0;" vertex="1" parent="dPYX6Sap5P_xijtm9A5s-21">
          <mxGeometry x="20.5" y="130.5" width="26" height="42.5" as="geometry" />
        </mxCell>
        <mxCell id="dPYX6Sap5P_xijtm9A5s-42" value="3.1.2 : [close==false]&lt;br&gt;&amp;nbsp; ~ApplyInfo()" style="text;html=1;strokeColor=none;fillColor=none;align=center;verticalAlign=middle;whiteSpace=wrap;rounded=0;" vertex="1" parent="dPYX6Sap5P_xijtm9A5s-21">
          <mxGeometry x="531.5" y="250" width="270" height="30" as="geometry" />
        </mxCell>
        <mxCell id="dPYX6Sap5P_xijtm9A5s-43" value="&lt;b&gt;sd&amp;nbsp; getRecruitStatus&lt;/b&gt;" style="shape=umlFrame;whiteSpace=wrap;html=1;pointerEvents=0;recursiveResize=0;container=1;collapsible=0;width=160;" vertex="1" parent="1">
          <mxGeometry x="390" y="1503" width="820" height="350" as="geometry" />
        </mxCell>
        <mxCell id="dPYX6Sap5P_xijtm9A5s-44" value="CompMember" style="shape=umlActor;verticalLabelPosition=bottom;verticalAlign=top;html=1;outlineConnect=0;" vertex="1" parent="dPYX6Sap5P_xijtm9A5s-43">
          <mxGeometry x="26" y="124.25" width="26" height="42.5" as="geometry" />
        </mxCell>
        <mxCell id="dPYX6Sap5P_xijtm9A5s-45" value=":&lt;b style=&quot;border-color: var(--border-color);&quot;&gt;getApplyStatusUI&lt;/b&gt;" style="fontStyle=1;whiteSpace=wrap;html=1;" vertex="1" parent="dPYX6Sap5P_xijtm9A5s-43">
          <mxGeometry x="113" y="130.5" width="140" height="30" as="geometry" />
        </mxCell>
        <mxCell id="dPYX6Sap5P_xijtm9A5s-46" value=":&lt;b style=&quot;border-color: var(--border-color);&quot;&gt;getApplyStatus&lt;/b&gt;" style="fontStyle=1;whiteSpace=wrap;html=1;" vertex="1" parent="dPYX6Sap5P_xijtm9A5s-43">
          <mxGeometry x="363" y="130.5" width="140" height="30" as="geometry" />
        </mxCell>
        <mxCell id="dPYX6Sap5P_xijtm9A5s-47" value="" style="endArrow=none;startArrow=none;endFill=0;startFill=0;endSize=8;html=1;verticalAlign=bottom;labelBackgroundColor=none;strokeWidth=3;rounded=0;" edge="1" parent="dPYX6Sap5P_xijtm9A5s-43">
          <mxGeometry width="160" relative="1" as="geometry">
            <mxPoint x="53" y="145" as="sourcePoint" />
            <mxPoint x="113" y="145" as="targetPoint" />
          </mxGeometry>
        </mxCell>
        <mxCell id="dPYX6Sap5P_xijtm9A5s-48" value="" style="endArrow=none;startArrow=none;endFill=0;startFill=0;endSize=8;html=1;verticalAlign=bottom;labelBackgroundColor=none;strokeWidth=3;rounded=0;entryX=0;entryY=0.5;entryDx=0;entryDy=0;" edge="1" parent="dPYX6Sap5P_xijtm9A5s-43" target="dPYX6Sap5P_xijtm9A5s-46">
          <mxGeometry width="160" relative="1" as="geometry">
            <mxPoint x="253" y="145" as="sourcePoint" />
            <mxPoint x="360" y="145" as="targetPoint" />
          </mxGeometry>
        </mxCell>
        <mxCell id="dPYX6Sap5P_xijtm9A5s-49" value="" style="html=1;verticalAlign=bottom;labelBackgroundColor=none;endArrow=block;endFill=1;rounded=0;" edge="1" parent="dPYX6Sap5P_xijtm9A5s-43">
          <mxGeometry width="160" relative="1" as="geometry">
            <mxPoint x="60" y="123" as="sourcePoint" />
            <mxPoint x="104" y="123" as="targetPoint" />
          </mxGeometry>
        </mxCell>
        <mxCell id="dPYX6Sap5P_xijtm9A5s-50" value="" style="html=1;verticalAlign=bottom;labelBackgroundColor=none;endArrow=block;endFill=1;rounded=0;" edge="1" parent="dPYX6Sap5P_xijtm9A5s-43">
          <mxGeometry width="160" relative="1" as="geometry">
            <mxPoint x="260" y="121" as="sourcePoint" />
            <mxPoint x="357" y="121" as="targetPoint" />
          </mxGeometry>
        </mxCell>
        <mxCell id="dPYX6Sap5P_xijtm9A5s-51" value="" style="html=1;verticalAlign=bottom;labelBackgroundColor=none;endArrow=block;endFill=1;rounded=0;" edge="1" parent="dPYX6Sap5P_xijtm9A5s-43">
          <mxGeometry width="160" relative="1" as="geometry">
            <mxPoint x="359" y="175.5" as="sourcePoint" />
            <mxPoint x="259" y="175.5" as="targetPoint" />
          </mxGeometry>
        </mxCell>
        <mxCell id="dPYX6Sap5P_xijtm9A5s-52" value="1 : startInterface()" style="text;html=1;strokeColor=none;fillColor=none;align=center;verticalAlign=middle;whiteSpace=wrap;rounded=0;" vertex="1" parent="dPYX6Sap5P_xijtm9A5s-43">
          <mxGeometry x="240" y="175.5" width="150" height="30" as="geometry" />
        </mxCell>
        <mxCell id="dPYX6Sap5P_xijtm9A5s-53" value="2. getRecruitStatus()" style="text;html=1;strokeColor=none;fillColor=none;align=center;verticalAlign=middle;whiteSpace=wrap;rounded=0;" vertex="1" parent="dPYX6Sap5P_xijtm9A5s-43">
          <mxGeometry x="11" y="80" width="150" height="30" as="geometry" />
        </mxCell>
        <mxCell id="dPYX6Sap5P_xijtm9A5s-54" value="2.1 : getRecruitStatus()" style="text;html=1;strokeColor=none;fillColor=none;align=center;verticalAlign=middle;whiteSpace=wrap;rounded=0;" vertex="1" parent="dPYX6Sap5P_xijtm9A5s-43">
          <mxGeometry x="230" y="80" width="150" height="30" as="geometry" />
        </mxCell>
        <mxCell id="dPYX6Sap5P_xijtm9A5s-55" value=":CompMember" style="fontStyle=1;whiteSpace=wrap;html=1;" vertex="1" parent="dPYX6Sap5P_xijtm9A5s-43">
          <mxGeometry x="660" y="130.5" width="140" height="30" as="geometry" />
        </mxCell>
        <mxCell id="dPYX6Sap5P_xijtm9A5s-56" value="" style="endArrow=none;startArrow=none;endFill=0;startFill=0;endSize=8;html=1;verticalAlign=bottom;labelBackgroundColor=none;strokeWidth=3;rounded=0;exitX=1;exitY=0.5;exitDx=0;exitDy=0;" edge="1" parent="dPYX6Sap5P_xijtm9A5s-43" source="dPYX6Sap5P_xijtm9A5s-46" target="dPYX6Sap5P_xijtm9A5s-55">
          <mxGeometry width="160" relative="1" as="geometry">
            <mxPoint x="513" y="155" as="sourcePoint" />
            <mxPoint x="653" y="156" as="targetPoint" />
          </mxGeometry>
        </mxCell>
        <mxCell id="dPYX6Sap5P_xijtm9A5s-57" value="" style="html=1;verticalAlign=bottom;labelBackgroundColor=none;endArrow=block;endFill=1;rounded=0;" edge="1" parent="dPYX6Sap5P_xijtm9A5s-43">
          <mxGeometry width="160" relative="1" as="geometry">
            <mxPoint x="540" y="124.25" as="sourcePoint" />
            <mxPoint x="637" y="124.25" as="targetPoint" />
          </mxGeometry>
        </mxCell>
        <mxCell id="dPYX6Sap5P_xijtm9A5s-58" value=":RecruitInfo" style="fontStyle=1;whiteSpace=wrap;html=1;" vertex="1" parent="dPYX6Sap5P_xijtm9A5s-43">
          <mxGeometry x="363" y="289" width="140" height="30" as="geometry" />
        </mxCell>
        <mxCell id="dPYX6Sap5P_xijtm9A5s-59" value="" style="endArrow=none;startArrow=none;endFill=0;startFill=0;endSize=8;html=1;verticalAlign=bottom;labelBackgroundColor=none;strokeWidth=3;rounded=0;exitX=0.5;exitY=0;exitDx=0;exitDy=0;entryX=0.5;entryY=1;entryDx=0;entryDy=0;" edge="1" parent="dPYX6Sap5P_xijtm9A5s-43" source="dPYX6Sap5P_xijtm9A5s-58" target="dPYX6Sap5P_xijtm9A5s-46">
          <mxGeometry width="160" relative="1" as="geometry">
            <mxPoint x="513" y="156" as="sourcePoint" />
            <mxPoint x="670" y="156" as="targetPoint" />
          </mxGeometry>
        </mxCell>
        <mxCell id="dPYX6Sap5P_xijtm9A5s-60" value="2.1.1 :&amp;nbsp;getRecruitDepartInfo()" style="text;html=1;strokeColor=none;fillColor=none;align=center;verticalAlign=middle;whiteSpace=wrap;rounded=0;" vertex="1" parent="dPYX6Sap5P_xijtm9A5s-43">
          <mxGeometry x="500" y="90" width="180" height="30" as="geometry" />
        </mxCell>
        <mxCell id="dPYX6Sap5P_xijtm9A5s-61" value="2.1.2 :&amp;nbsp;getRecruitCount()" style="text;html=1;strokeColor=none;fillColor=none;align=center;verticalAlign=middle;whiteSpace=wrap;rounded=0;" vertex="1" parent="dPYX6Sap5P_xijtm9A5s-43">
          <mxGeometry x="239" y="230" width="180" height="30" as="geometry" />
        </mxCell>
        <mxCell id="dPYX6Sap5P_xijtm9A5s-62" value="" style="endArrow=classic;html=1;rounded=0;" edge="1" parent="dPYX6Sap5P_xijtm9A5s-43">
          <mxGeometry width="50" height="50" relative="1" as="geometry">
            <mxPoint x="409.17" y="205.5" as="sourcePoint" />
            <mxPoint x="409.17" y="275.5" as="targetPoint" />
          </mxGeometry>
        </mxCell>
        <mxCell id="dPYX6Sap5P_xijtm9A5s-63" value="&lt;b&gt;sd&amp;nbsp; getApplyCount&lt;/b&gt;" style="shape=umlFrame;whiteSpace=wrap;html=1;pointerEvents=0;recursiveResize=0;container=1;collapsible=0;width=160;" vertex="1" parent="1">
          <mxGeometry x="397" y="1070" width="810" height="343" as="geometry" />
        </mxCell>
        <mxCell id="dPYX6Sap5P_xijtm9A5s-64" value="GenMember" style="shape=umlActor;verticalLabelPosition=bottom;verticalAlign=top;html=1;outlineConnect=0;" vertex="1" parent="dPYX6Sap5P_xijtm9A5s-63">
          <mxGeometry x="20" y="124.25" width="26" height="42.5" as="geometry" />
        </mxCell>
        <mxCell id="dPYX6Sap5P_xijtm9A5s-65" value=":&lt;b style=&quot;border-color: var(--border-color);&quot;&gt;getApplyCount&lt;/b&gt;UI" style="fontStyle=1;whiteSpace=wrap;html=1;" vertex="1" parent="dPYX6Sap5P_xijtm9A5s-63">
          <mxGeometry x="113" y="130.5" width="140" height="30" as="geometry" />
        </mxCell>
        <mxCell id="dPYX6Sap5P_xijtm9A5s-66" value=":&lt;b style=&quot;border-color: var(--border-color);&quot;&gt;getApplyCount&lt;/b&gt;" style="fontStyle=1;whiteSpace=wrap;html=1;" vertex="1" parent="dPYX6Sap5P_xijtm9A5s-63">
          <mxGeometry x="363" y="130.5" width="140" height="30" as="geometry" />
        </mxCell>
        <mxCell id="dPYX6Sap5P_xijtm9A5s-67" value="" style="endArrow=none;startArrow=none;endFill=0;startFill=0;endSize=8;html=1;verticalAlign=bottom;labelBackgroundColor=none;strokeWidth=3;rounded=0;" edge="1" parent="dPYX6Sap5P_xijtm9A5s-63">
          <mxGeometry width="160" relative="1" as="geometry">
            <mxPoint x="53" y="145" as="sourcePoint" />
            <mxPoint x="113" y="145" as="targetPoint" />
          </mxGeometry>
        </mxCell>
        <mxCell id="dPYX6Sap5P_xijtm9A5s-68" value="" style="endArrow=none;startArrow=none;endFill=0;startFill=0;endSize=8;html=1;verticalAlign=bottom;labelBackgroundColor=none;strokeWidth=3;rounded=0;entryX=0;entryY=0.5;entryDx=0;entryDy=0;" edge="1" parent="dPYX6Sap5P_xijtm9A5s-63" target="dPYX6Sap5P_xijtm9A5s-66">
          <mxGeometry width="160" relative="1" as="geometry">
            <mxPoint x="253" y="145" as="sourcePoint" />
            <mxPoint x="360" y="145" as="targetPoint" />
          </mxGeometry>
        </mxCell>
        <mxCell id="dPYX6Sap5P_xijtm9A5s-69" value="" style="html=1;verticalAlign=bottom;labelBackgroundColor=none;endArrow=block;endFill=1;rounded=0;" edge="1" parent="dPYX6Sap5P_xijtm9A5s-63">
          <mxGeometry width="160" relative="1" as="geometry">
            <mxPoint x="60" y="123" as="sourcePoint" />
            <mxPoint x="104" y="123" as="targetPoint" />
          </mxGeometry>
        </mxCell>
        <mxCell id="dPYX6Sap5P_xijtm9A5s-70" value="" style="html=1;verticalAlign=bottom;labelBackgroundColor=none;endArrow=block;endFill=1;rounded=0;" edge="1" parent="dPYX6Sap5P_xijtm9A5s-63">
          <mxGeometry width="160" relative="1" as="geometry">
            <mxPoint x="260" y="121" as="sourcePoint" />
            <mxPoint x="357" y="121" as="targetPoint" />
          </mxGeometry>
        </mxCell>
        <mxCell id="dPYX6Sap5P_xijtm9A5s-71" value="" style="html=1;verticalAlign=bottom;labelBackgroundColor=none;endArrow=block;endFill=1;rounded=0;" edge="1" parent="dPYX6Sap5P_xijtm9A5s-63">
          <mxGeometry width="160" relative="1" as="geometry">
            <mxPoint x="359" y="175.5" as="sourcePoint" />
            <mxPoint x="259" y="175.5" as="targetPoint" />
          </mxGeometry>
        </mxCell>
        <mxCell id="dPYX6Sap5P_xijtm9A5s-72" value="1 : startInterface()" style="text;html=1;strokeColor=none;fillColor=none;align=center;verticalAlign=middle;whiteSpace=wrap;rounded=0;" vertex="1" parent="dPYX6Sap5P_xijtm9A5s-63">
          <mxGeometry x="240" y="175.5" width="150" height="30" as="geometry" />
        </mxCell>
        <mxCell id="dPYX6Sap5P_xijtm9A5s-73" value="2. getApplyCount()" style="text;html=1;strokeColor=none;fillColor=none;align=center;verticalAlign=middle;whiteSpace=wrap;rounded=0;" vertex="1" parent="dPYX6Sap5P_xijtm9A5s-63">
          <mxGeometry x="11" y="80" width="150" height="30" as="geometry" />
        </mxCell>
        <mxCell id="dPYX6Sap5P_xijtm9A5s-74" value="2.1 : getApplyCount()" style="text;html=1;strokeColor=none;fillColor=none;align=center;verticalAlign=middle;whiteSpace=wrap;rounded=0;" vertex="1" parent="dPYX6Sap5P_xijtm9A5s-63">
          <mxGeometry x="230" y="80" width="150" height="30" as="geometry" />
        </mxCell>
        <mxCell id="dPYX6Sap5P_xijtm9A5s-75" value=":GenMember" style="fontStyle=1;whiteSpace=wrap;html=1;" vertex="1" parent="dPYX6Sap5P_xijtm9A5s-63">
          <mxGeometry x="630" y="130.5" width="140" height="30" as="geometry" />
        </mxCell>
        <mxCell id="dPYX6Sap5P_xijtm9A5s-76" value="" style="endArrow=none;startArrow=none;endFill=0;startFill=0;endSize=8;html=1;verticalAlign=bottom;labelBackgroundColor=none;strokeWidth=3;rounded=0;exitX=1;exitY=0.5;exitDx=0;exitDy=0;entryX=0;entryY=0.5;entryDx=0;entryDy=0;" edge="1" parent="dPYX6Sap5P_xijtm9A5s-63" source="dPYX6Sap5P_xijtm9A5s-66" target="dPYX6Sap5P_xijtm9A5s-75">
          <mxGeometry width="160" relative="1" as="geometry">
            <mxPoint x="513" y="155" as="sourcePoint" />
            <mxPoint x="653" y="156" as="targetPoint" />
          </mxGeometry>
        </mxCell>
        <mxCell id="dPYX6Sap5P_xijtm9A5s-77" value="2.1.1 :&amp;nbsp;getDepartApplyCount()" style="text;html=1;strokeColor=none;fillColor=none;align=center;verticalAlign=middle;whiteSpace=wrap;rounded=0;" vertex="1" parent="dPYX6Sap5P_xijtm9A5s-63">
          <mxGeometry x="470" y="80" width="170" height="30" as="geometry" />
        </mxCell>
        <mxCell id="dPYX6Sap5P_xijtm9A5s-78" value="" style="html=1;verticalAlign=bottom;labelBackgroundColor=none;endArrow=block;endFill=1;rounded=0;" edge="1" parent="dPYX6Sap5P_xijtm9A5s-63">
          <mxGeometry width="160" relative="1" as="geometry">
            <mxPoint x="503" y="120" as="sourcePoint" />
            <mxPoint x="600" y="120" as="targetPoint" />
          </mxGeometry>
        </mxCell>
        <mxCell id="dPYX6Sap5P_xijtm9A5s-79" value=":ApplyInfo" style="fontStyle=1;whiteSpace=wrap;html=1;" vertex="1" parent="dPYX6Sap5P_xijtm9A5s-63">
          <mxGeometry x="362" y="287" width="140" height="30" as="geometry" />
        </mxCell>
        <mxCell id="dPYX6Sap5P_xijtm9A5s-80" value="" style="endArrow=none;startArrow=none;endFill=0;startFill=0;endSize=8;html=1;verticalAlign=bottom;labelBackgroundColor=none;strokeWidth=3;rounded=0;exitX=1;exitY=0.5;exitDx=0;exitDy=0;entryX=0;entryY=0.5;entryDx=0;entryDy=0;" edge="1" parent="dPYX6Sap5P_xijtm9A5s-63" source="dPYX6Sap5P_xijtm9A5s-66" target="dPYX6Sap5P_xijtm9A5s-75">
          <mxGeometry width="160" relative="1" as="geometry">
            <mxPoint x="570" y="1493" as="sourcePoint" />
            <mxPoint x="697" y="1493" as="targetPoint" />
            <Array as="points">
              <mxPoint x="573" y="146" />
            </Array>
          </mxGeometry>
        </mxCell>
        <mxCell id="dPYX6Sap5P_xijtm9A5s-81" value="" style="endArrow=none;startArrow=none;endFill=0;startFill=0;endSize=8;html=1;verticalAlign=bottom;labelBackgroundColor=none;strokeWidth=3;rounded=0;exitX=1;exitY=0.5;exitDx=0;exitDy=0;entryX=0;entryY=0.5;entryDx=0;entryDy=0;" edge="1" parent="dPYX6Sap5P_xijtm9A5s-63" source="dPYX6Sap5P_xijtm9A5s-66" target="dPYX6Sap5P_xijtm9A5s-75">
          <mxGeometry width="160" relative="1" as="geometry">
            <mxPoint x="570" y="1493" as="sourcePoint" />
            <mxPoint x="697" y="1493" as="targetPoint" />
            <Array as="points">
              <mxPoint x="543" y="146" />
              <mxPoint x="573" y="146" />
            </Array>
          </mxGeometry>
        </mxCell>
        <mxCell id="dPYX6Sap5P_xijtm9A5s-82" value="" style="endArrow=none;startArrow=none;endFill=0;startFill=0;endSize=8;html=1;verticalAlign=bottom;labelBackgroundColor=none;strokeWidth=3;rounded=0;entryX=0.5;entryY=1;entryDx=0;entryDy=0;exitX=0.5;exitY=0;exitDx=0;exitDy=0;" edge="1" parent="dPYX6Sap5P_xijtm9A5s-63">
          <mxGeometry width="160" relative="1" as="geometry">
            <mxPoint x="432" y="290" as="sourcePoint" />
            <mxPoint x="432.9999999999998" y="163.5" as="targetPoint" />
            <Array as="points">
              <mxPoint x="433" y="246" />
              <mxPoint x="433" y="216" />
            </Array>
          </mxGeometry>
        </mxCell>
        <mxCell id="dPYX6Sap5P_xijtm9A5s-83" value="" style="endArrow=classic;html=1;rounded=0;" edge="1" parent="dPYX6Sap5P_xijtm9A5s-63">
          <mxGeometry width="50" height="50" relative="1" as="geometry">
            <mxPoint x="404.23" y="205.5" as="sourcePoint" />
            <mxPoint x="404.23" y="275.5" as="targetPoint" />
          </mxGeometry>
        </mxCell>
        <mxCell id="dPYX6Sap5P_xijtm9A5s-84" value="2.1.2 : getDepart()" style="text;html=1;strokeColor=none;fillColor=none;align=center;verticalAlign=middle;whiteSpace=wrap;rounded=0;" vertex="1" parent="dPYX6Sap5P_xijtm9A5s-63">
          <mxGeometry x="240" y="223" width="170" height="30" as="geometry" />
        </mxCell>
      </root>
    </mxGraphModel>
  </diagram>
</mxfile>
